<svg xmlns="http://www.w3.org/2000/svg" viewBox="0 0 174.53 120.67"><defs><style>.cls-1{fill:#2b2932;}.cls-2{fill:#d9b182;}</style></defs><title>Asset 1</title><g id="Layer_2" data-name="Layer 2"><g id="Layer_1-2" data-name="Layer 1"><path class="cls-1" d="M17.33,73.87a18.09,18.09,0,0,1-7-1.31,17,17,0,0,1-5.48-3.63,16.44,16.44,0,0,1-3.6-5.53,19.39,19.39,0,0,1,0-13.91A16.3,16.3,0,0,1,4.89,44a16.7,16.7,0,0,1,5.48-3.63,17.9,17.9,0,0,1,7-1.31,17.85,17.85,0,0,1,7,1.31A16.6,16.6,0,0,1,29.76,44a16.17,16.17,0,0,1,3.61,5.52,19.54,19.54,0,0,1,0,13.91,16.31,16.31,0,0,1-3.61,5.53,16.92,16.92,0,0,1-5.48,3.63A18,18,0,0,1,17.33,73.87Zm0-3.66a12.86,12.86,0,0,0,5.31-1.07,12.6,12.6,0,0,0,4.15-3,13.58,13.58,0,0,0,2.69-4.38,15.47,15.47,0,0,0,0-10.73,13.53,13.53,0,0,0-2.69-4.37,12.46,12.46,0,0,0-4.15-3,12.86,12.86,0,0,0-5.31-1.08A12.87,12.87,0,0,0,12,43.76a12.32,12.32,0,0,0-4.14,3,13.39,13.39,0,0,0-2.7,4.37,15.47,15.47,0,0,0,0,10.73,13.43,13.43,0,0,0,2.7,4.38,12.46,12.46,0,0,0,4.14,3A12.87,12.87,0,0,0,17.33,70.21Z"/><path class="cls-2" d="M41,39.87h8.47a39.58,39.58,0,0,1,4.75.28,12.7,12.7,0,0,1,4.24,1.22,7.66,7.66,0,0,1,3.05,2.74A8.89,8.89,0,0,1,62.66,49a8.1,8.1,0,0,1-2.2,5.9,10.55,10.55,0,0,1-6.09,2.86L63.78,73H59L50,58.13H44.91V73H41Zm3.93,14.61h3.51c1.09,0,2.23,0,3.4-.09a12.1,12.1,0,0,0,3.23-.61,5.64,5.64,0,0,0,2.43-1.62,4.65,4.65,0,0,0,1-3.16,5.15,5.15,0,0,0-.7-2.86,4.85,4.85,0,0,0-1.85-1.66,7.77,7.77,0,0,0-2.58-.77,21.22,21.22,0,0,0-2.88-.19H44.91Z"/><path class="cls-2" d="M69.59,39.87H90.43v3.65H73.52v10.4H89.3v3.65H73.52v11.8H91.27V73H69.59Z"/><path class="cls-1" d="M97.36,39.87h3.93V73H97.36Z"/><path class="cls-1" d="M109.53,39.87h5L133.7,67.4h.09V39.87h3.93V73h-5l-19.2-27.53h-.09V73h-3.94Z"/><path class="cls-1" d="M160.43,39.87h-3.7L142.12,73h4.45L150,64.88h.06l8.37-19.95h.09l8.06,19.95.05.13,3.32,8h4.59Z"/><path class="cls-2" d="M53.23,85.1V95h5.53V91.72a.63.63,0,0,1,.12-.43.44.44,0,0,1,.31-.13.38.38,0,0,1,.3.13.6.6,0,0,1,.12.43v4.14h-9.2a.63.63,0,0,1-.43-.12.41.41,0,0,1-.13-.29.42.42,0,0,1,.13-.31.69.69,0,0,1,.43-.11h2V85.1h-2A.63.63,0,0,1,50,85a.4.4,0,0,1-.13-.3.38.38,0,0,1,.13-.3.63.63,0,0,1,.43-.12h4.81a.6.6,0,0,1,.42.12.35.35,0,0,1,.13.3.37.37,0,0,1-.13.3.6.6,0,0,1-.42.12Z"/><path class="cls-2" d="M70.89,85.1v7a4,4,0,0,1-1.17,3,3.83,3.83,0,0,1-2.83,1.19,3.89,3.89,0,0,1-2-.49,4.25,4.25,0,0,1-2.07-3.65v-7h-.7a.61.61,0,0,1-.43-.12.37.37,0,0,1-.13-.3.43.43,0,0,1,.14-.32.72.72,0,0,1,.42-.1h3.07a.59.59,0,0,1,.42.12.35.35,0,0,1,.13.3.37.37,0,0,1-.13.3.59.59,0,0,1-.42.12H63.68v7a3.25,3.25,0,0,0,.94,2.34,3,3,0,0,0,2.23,1A3.11,3.11,0,0,0,68.36,95a3.45,3.45,0,0,0,1.19-1.16,3.16,3.16,0,0,0,.51-1.77v-7H68.52a.63.63,0,0,1-.43-.12.4.4,0,0,1-.13-.3.38.38,0,0,1,.13-.3.63.63,0,0,1,.43-.12h3.07a.63.63,0,0,1,.43.12.38.38,0,0,1,.13.3A.4.4,0,0,1,72,85a.63.63,0,0,1-.43.12Z"/><path class="cls-2" d="M79.54,89.92l4,5.11h.32a.64.64,0,0,1,.42.11.39.39,0,0,1,.13.31.37.37,0,0,1-.13.29.59.59,0,0,1-.42.12H81.14a.63.63,0,0,1-.43-.12.4.4,0,0,1-.12-.29.41.41,0,0,1,.12-.31.69.69,0,0,1,.43-.11h1.33L79,90.61,75.63,95H77a.66.66,0,0,1,.42.11.39.39,0,0,1,.13.31.37.37,0,0,1-.13.29.6.6,0,0,1-.42.12H74.3a.63.63,0,0,1-.43-.12.41.41,0,0,1-.05-.54.44.44,0,0,1,.18-.14,3.34,3.34,0,0,1,.61,0l3.9-5.11L74.79,85.1h-.31a.63.63,0,0,1-.43-.12.4.4,0,0,1-.13-.3.38.38,0,0,1,.13-.3.63.63,0,0,1,.43-.12h2.27a.66.66,0,0,1,.44.12.38.38,0,0,1,.12.3.39.39,0,0,1-.12.3.66.66,0,0,1-.44.12h-.93L79,89.25l3.19-4.15h-.93a.64.64,0,0,1-.44-.12.4.4,0,0,1-.13-.3.38.38,0,0,1,.13-.3.64.64,0,0,1,.44-.12h2.28a.63.63,0,0,1,.43.12.38.38,0,0,1,.12.3A.39.39,0,0,1,84,85a.63.63,0,0,1-.43.12h-.32Z"/><path class="cls-2" d="M95.26,85.1v7a4,4,0,0,1-1.17,3,4.05,4.05,0,0,1-4.8.7,4.06,4.06,0,0,1-1.47-1.47,4.11,4.11,0,0,1-.6-2.18v-7h-.71a.59.59,0,0,1-.42-.12.37.37,0,0,1-.13-.3.4.4,0,0,1,.14-.32.68.68,0,0,1,.41-.1h3.08a.6.6,0,0,1,.42.12.35.35,0,0,1,.13.3A.37.37,0,0,1,90,85a.6.6,0,0,1-.42.12H88.05v7A3.21,3.21,0,0,0,89,94.39a3,3,0,0,0,2.23,1,3,3,0,0,0,1.5-.38,3.37,3.37,0,0,0,1.19-1.16,3.16,3.16,0,0,0,.51-1.77v-7H92.89a.63.63,0,0,1-.43-.12.4.4,0,0,1-.13-.3.38.38,0,0,1,.13-.3.63.63,0,0,1,.43-.12H96a.63.63,0,0,1,.43.12.38.38,0,0,1,.13.3.4.4,0,0,1-.13.3.63.63,0,0,1-.43.12Z"/><path class="cls-2" d="M100.7,90.69V95h1.54a.67.67,0,0,1,.43.11.39.39,0,0,1,.13.31.37.37,0,0,1-.13.29.61.61,0,0,1-.43.12H98.75a.63.63,0,0,1-.43-.12.37.37,0,0,1-.13-.29.39.39,0,0,1,.13-.31.69.69,0,0,1,.43-.11h1.12V85.1H98.75a.63.63,0,0,1-.43-.12.37.37,0,0,1-.13-.3.35.35,0,0,1,.13-.3.63.63,0,0,1,.43-.12h5a3.72,3.72,0,0,1,2.63,1,3,3,0,0,1,1.06,2.22,2.6,2.6,0,0,1-.66,1.69,4.89,4.89,0,0,1-2.2,1.31,7.25,7.25,0,0,1,1.52,1.39,27.8,27.8,0,0,1,2,3.17h.63a.69.69,0,0,1,.43.11.41.41,0,0,1,.12.31.4.4,0,0,1-.12.29.63.63,0,0,1-.43.12h-1.11a23.84,23.84,0,0,0-2.39-3.71,6.4,6.4,0,0,0-2-1.46Zm0-.84H103a4.86,4.86,0,0,0,2-.39,3.36,3.36,0,0,0,1.29-.93,1.79,1.79,0,0,0,.4-1.09,2.14,2.14,0,0,0-.84-1.59,3,3,0,0,0-2-.75H100.7Z"/><path class="cls-2" d="M116,90.63V95h2.16a.64.64,0,0,1,.42.11.39.39,0,0,1,.13.31.37.37,0,0,1-.13.29.59.59,0,0,1-.42.12H113a.59.59,0,0,1-.42-.12.37.37,0,0,1-.13-.29.41.41,0,0,1,.12-.31A.67.67,0,0,1,113,95h2.16v-4.4l-3.65-5.53H111a.63.63,0,0,1-.43-.12.4.4,0,0,1-.13-.3.38.38,0,0,1,.13-.3.63.63,0,0,1,.43-.12h2.29a.63.63,0,0,1,.43.12.38.38,0,0,1,.13.3.4.4,0,0,1-.13.3.63.63,0,0,1-.43.12h-.82l3.11,4.68,3-4.68h-.81a.66.66,0,0,1-.44-.12.39.39,0,0,1-.12-.3.38.38,0,0,1,.12-.3.66.66,0,0,1,.44-.12h2.28a.63.63,0,0,1,.43.12.38.38,0,0,1,.13.3.4.4,0,0,1-.13.3.63.63,0,0,1-.43.12h-.49Z"/><path class="cls-2" d="M85.33,0A52.76,52.76,0,0,0,56.66,8.49,59.31,59.31,0,0,0,34.6,34.54h4.46a55.24,55.24,0,0,1,17.6-21A49.28,49.28,0,0,1,85.33,4.3c20.09,0,37.57,12.29,46.26,30.24h4.47C127.05,14.14,107.7,0,85.33,0ZM128,92.56c-9.44,14.39-25,23.81-42.62,23.81a49.49,49.49,0,0,1-31-11A54.91,54.91,0,0,1,42.7,92.56H37.9a58.93,58.93,0,0,0,16.43,18,53,53,0,0,0,31,10.06c19.94,0,37.48-11.22,47.43-28.11Z"/><path class="cls-1" d="M56.66,8.49v5.07a55.24,55.24,0,0,0-17.6,21H34.6A59.31,59.31,0,0,1,56.66,8.49Z"/><path class="cls-1" d="M54.33,105.36v5.25a58.93,58.93,0,0,1-16.43-18h4.8A54.91,54.91,0,0,0,54.33,105.36Z"/></g></g></svg>