<svg xmlns="http://www.w3.org/2000/svg" width="291.737" height="290.419" viewBox="0 0 291.737 290.419">
  <g id="Group_8" data-name="Group 8" transform="translate(-404 -134.581)">
    <path id="Path_26" data-name="Path 26" d="M75.876,182.084s10.495,12.646,23.178,13.3C99.054,195.388,86.877,184.442,75.876,182.084Zm3.4,14.337c8.381,10.474,23.342,16.756,23.342,16.756C95.351,203.033,79.274,196.42,79.274,196.42ZM19.784,229.9s17.072,4.55,26.65-2.832C46.434,227.071,30.516,223,19.784,229.9Zm80.881-36.613s8.21-13.827,9.61-24.888C110.276,168.4,100.632,180.934,100.666,193.29Zm-1.173-1.238s3.115-10.707,1.85-19.637C101.343,172.415,97.938,183.867,99.493,192.052Zm-1.864-4.276s3.391-15.441-1.9-26.608C95.727,161.168,94.188,177.173,97.629,187.776ZM86.142,250.547c4.353-10.828,1.546-27.722,1.546-27.722C83.629,234.765,86.142,250.547,86.142,250.547Zm12.589-58.2s-5.352-15.539-17.018-20.7C81.712,171.642,87.3,188.4,98.731,192.345ZM46.606,226.272s-7.225-8.488-15.376-12.341C31.23,213.931,38.916,223.073,46.606,226.272Zm1.685-.3s-7.039-14.46-15.5-21.714C32.787,204.262,37.948,219.207,48.291,225.976Zm-29.545-13.54s12.522,10.092,23.268,13.047C42.014,225.484,30.983,214.155,18.746,212.436ZM66.794,234.93c8.564-14.04,3.821-33.392,3.821-33.392C64.936,214.854,66.794,234.93,66.794,234.93Zm-15.872-7.758s-2.4-15.626-11.359-24.136C39.563,203.037,43.891,218.526,50.923,227.173ZM82.09,247.02c-.847-8.554-8.1-17.905-8.1-17.905C75.386,238.242,82.09,247.02,82.09,247.02Zm-18.1-15.151c-1.7-12.257-13.017-25.975-13.017-25.975C53.522,219,63.993,231.868,63.993,231.868Zm56.836-30.243s-1,15.641,7.781,25.645C128.61,227.27,131.218,210.65,120.829,201.625ZM76.965,287.932s15.668-2.107,24.345-10.9C101.311,277.028,85.743,281.066,76.965,287.932Zm37.549,11.347c6.919,91.572-3.358,151.426-3.358,151.426l6.711.881c8.517-91.58,2.7-159.092-4.389-201.645,7.1-16.451,15.8-22.24,15.8-22.24-8.436,5.46-13.877,13.872-16.43,18.531-5.788-33.265-12.152-50.147-12.152-50.147a912.98,912.98,0,0,1,12.989,92.992c-9.061-17.067-30.519-50.208-65.3-61.885C51.276,228.214,88.97,242.485,114.515,299.279ZM99.248,275.844s-15.623-5.582-28.83-3.614C70.418,272.23,87.128,278.327,99.248,275.844ZM48.19,227.126l.194.067C48.266,227.151,48.19,227.126,48.19,227.126Zm33.533,25.732s-15.561,4.054-24.333,10.928C57.389,263.785,73.053,261.659,81.722,252.858ZM30.874,237.669s12.528-2.04,17.523-9.212C48.4,228.457,36.759,230.464,30.874,237.669Zm48.784,14s-15.629-5.57-28.831-3.587C50.827,248.087,67.538,254.172,79.658,251.674Zm35.37-78.286s-10.557,12.132-13.919,22.76C101.11,196.148,112.845,185.554,115.028,173.388Zm38.357,63.8s-15.172-5.348-26.287-4.558C127.1,232.633,141.274,239.637,153.386,237.191Zm-6.1-28.521s-9.727,6.934-13.532,14.348C133.758,223.018,142.8,216.488,147.29,208.671Zm-44.2-13.39c11.207-3.237,22.784-15.854,22.784-15.854C113.974,183.588,103.093,195.281,103.093,195.281Zm28.053,29.448s6.622-14.656,6.778-25.806C137.923,198.923,129.74,212.452,131.146,224.728Zm2.773-.014S148.9,218.859,156.8,211C156.8,211,141.491,214.95,133.919,224.715Zm23.564-6.866s-15.784,3.081-24.969,9.4C132.514,227.244,148.285,226.1,157.483,217.848ZM97.7,272.753s-8.94-6.68-16.542-7C81.154,265.758,89.054,273.951,97.7,272.753Z" transform="translate(385.254 -26.587)" fill="#e1b886"/>
    <path id="Path_28" data-name="Path 28" d="M100.353,182.084s-10.495,12.646-23.178,13.3C77.175,195.388,89.352,184.442,100.353,182.084Zm-3.4,14.337c-8.381,10.474-23.342,16.756-23.342,16.756C80.878,203.033,96.955,196.42,96.955,196.42ZM156.445,229.9s-17.072,4.55-26.65-2.832C129.8,227.071,145.713,223,156.445,229.9ZM75.564,193.29s-8.21-13.827-9.61-24.888C65.953,168.4,75.6,180.934,75.564,193.29Zm1.173-1.238s-3.115-10.707-1.85-19.637C74.886,172.415,78.291,183.867,76.736,192.052Zm1.864-4.276s-3.391-15.441,1.9-26.608C80.5,161.168,82.041,177.173,78.6,187.776Zm11.487,62.771c-4.353-10.828-1.546-27.722-1.546-27.722C92.6,234.765,90.088,250.547,90.088,250.547ZM77.5,192.345s5.352-15.539,17.018-20.7C94.517,171.642,88.933,188.4,77.5,192.345Zm52.125,33.927s7.225-8.488,15.376-12.341C145,213.931,137.313,223.073,129.623,226.272Zm-1.685-.3s7.039-14.46,15.5-21.714C143.442,204.262,138.282,219.207,127.938,225.976Zm29.545-13.54s-12.523,10.092-23.268,13.047C134.215,225.484,145.246,214.155,157.483,212.436ZM109.435,234.93c-8.564-14.04-3.821-33.392-3.821-33.392C111.293,214.854,109.435,234.93,109.435,234.93Zm15.872-7.758s2.4-15.626,11.359-24.136C136.666,203.037,132.338,218.526,125.307,227.173ZM94.139,247.02c.847-8.554,8.1-17.905,8.1-17.905C100.843,238.242,94.139,247.02,94.139,247.02Zm18.1-15.151c1.7-12.257,13.017-25.975,13.017-25.975C122.707,219,112.236,231.868,112.236,231.868ZM55.4,201.625s1,15.641-7.781,25.645C47.619,227.27,45.011,210.65,55.4,201.625Zm43.863,86.307s-15.668-2.107-24.345-10.9C74.918,277.028,90.486,281.066,99.264,287.932ZM61.714,299.279c-6.919,91.572,3.358,151.426,3.358,151.426l-6.711.881c-8.517-91.58-2.7-159.092,4.389-201.645-7.1-16.451-15.8-22.24-15.8-22.24,8.436,5.46,13.877,13.872,16.43,18.531,5.788-33.265,12.152-50.147,12.152-50.147a912.978,912.978,0,0,0-12.989,92.992c9.061-17.067,30.519-50.208,65.3-61.885C124.953,228.214,87.259,242.485,61.714,299.279Zm15.267-23.435s15.623-5.582,28.83-3.614C105.811,272.23,89.1,278.327,76.981,275.844Zm51.059-48.719-.194.067C127.963,227.151,128.04,227.126,128.04,227.126ZM94.507,252.858s15.561,4.054,24.333,10.928C118.84,263.785,103.176,261.659,94.507,252.858Zm50.848-15.189s-12.528-2.04-17.523-9.212C127.831,228.457,139.47,230.464,145.355,237.669Zm-48.784,14s15.629-5.57,28.831-3.587C125.4,248.087,108.691,254.172,96.571,251.674ZM61.2,173.388s10.557,12.132,13.919,22.76C75.119,196.148,63.384,185.554,61.2,173.388Zm-38.357,63.8s15.172-5.348,26.287-4.558C49.131,232.633,34.955,239.637,22.843,237.191Zm6.1-28.521s9.727,6.934,13.532,14.348C42.471,223.018,33.431,216.488,28.939,208.671Zm44.2-13.39c-11.207-3.237-22.784-15.854-22.784-15.854C62.255,183.588,73.136,195.281,73.136,195.281ZM45.083,224.728s-6.622-14.656-6.778-25.806C38.306,198.923,46.489,212.452,45.083,224.728Zm-2.773-.014S27.329,218.859,19.43,211C19.43,211,34.738,214.95,42.31,224.715Zm-23.564-6.866s15.784,3.081,24.969,9.4C43.715,227.244,27.944,226.1,18.746,217.848Zm59.787,54.9s8.94-6.68,16.542-7C95.075,265.758,87.176,273.951,78.532,272.753Z" transform="translate(538.254 -26.587)" fill="#e1b886"/>
  </g>
</svg>
